<svg width="163" height="20" viewBox="0 0 163 20" fill="none" xmlns="http://www.w3.org/2000/svg">
<path d="M18.8752 19.9999H13.3808L6.06425 8.95501V19.9999H0.569824V0.236816H6.06425L13.3808 11.4219V0.236816H18.8752V19.9999Z" fill="black"/>
<path d="M33.8629 0.236816V4.60993H25.9577V8.086H31.7885V12.2629H25.9577V19.9999H20.4632V0.236816H33.8629Z" fill="black"/>
<path d="M49.5205 0.236816V4.60993H44.2504V19.9999H38.756V4.60993H33.5419V0.236816H49.5205Z" fill="black"/>
<path d="M76.9064 0.236816V19.9999H71.4119V9.09518L67.6836 19.9999H63.0862L59.3298 9.01108V19.9999H53.8354V0.236816H60.4792L65.441 13.0758L70.2906 0.236816H76.9064Z" fill="black"/>
<path d="M90.9948 16.7762H83.9866L82.9214 19.9999H77.1466L84.3511 0.236816H90.6865L97.8629 19.9999H92.0601L90.9948 16.7762ZM89.6212 12.5712L87.4907 6.17977L85.3883 12.5712H89.6212Z" fill="black"/>
<path d="M108.12 19.9999L104.195 12.7114H103.606V19.9999H98.1119V0.236816H106.774C108.363 0.236816 109.708 0.517145 110.811 1.0778C111.913 1.61977 112.745 2.37665 113.306 3.34846C113.866 4.30157 114.147 5.37616 114.147 6.57223C114.147 7.9178 113.773 9.10452 113.025 10.1324C112.296 11.1416 111.222 11.8611 109.802 12.2909L114.259 19.9999H108.12ZM103.606 8.95501H106.325C107.073 8.95501 107.634 8.77747 108.007 8.42239C108.381 8.06731 108.568 7.55337 108.568 6.88059C108.568 6.24518 108.372 5.74993 107.979 5.39485C107.606 5.02108 107.054 4.83419 106.325 4.83419H103.606V8.95501Z" fill="black"/>
<path d="M126.793 19.9999L120.598 11.3378V19.9999H115.103V0.236816H120.598V8.75878L126.737 0.236816H133.072L125.812 9.82403L133.437 19.9999H126.793Z" fill="black"/>
<path d="M139.396 4.63796V7.86173H145.704V12.0386H139.396V15.5988H146.545V19.9999H133.902V0.236816H146.545V4.63796H139.396Z" fill="black"/>
<path d="M162.603 0.236816V4.60993H157.333V19.9999H151.839V4.60993H146.625V0.236816H162.603Z" fill="black"/>
</svg>
