<svg width="22" height="22" viewBox="0 0 22 22" fill="none" xmlns="http://www.w3.org/2000/svg">
<path d="M20.7808 0H1.21917C0.896565 0.00239863 0.587857 0.131616 0.359737 0.359737C0.131616 0.587857 0.00239863 0.896565 0 1.21917V20.7808C0.00239863 21.1034 0.131616 21.4121 0.359737 21.6403C0.587857 21.8684 0.896565 21.9976 1.21917 22H11.7517V13.4933H8.89167V10.1658H11.7517V7.71833C11.7517 4.87667 13.4842 3.3275 16.0325 3.3275C16.885 3.3275 17.7375 3.3275 18.59 3.45583V6.41667H16.8392C15.455 6.41667 15.1892 7.07667 15.1892 8.03917V10.1567H18.4892L18.0583 13.4842H15.1892V22H20.7808C21.1034 21.9976 21.4121 21.8684 21.6403 21.6403C21.8684 21.4121 21.9976 21.1034 22 20.7808V1.21917C21.9976 0.896565 21.8684 0.587857 21.6403 0.359737C21.4121 0.131616 21.1034 0.00239863 20.7808 0Z" fill="#8F8F8F"/>
</svg>
