<svg width="22" height="22" viewBox="0 0 22 22" fill="none" xmlns="http://www.w3.org/2000/svg">
<path d="M16.8718 6.44811C17.6008 6.44811 18.1918 5.85712 18.1918 5.12811C18.1918 4.39909 17.6008 3.80811 16.8718 3.80811C16.1427 3.80811 15.5518 4.39909 15.5518 5.12811C15.5518 5.85712 16.1427 6.44811 16.8718 6.44811Z" fill="#8F8F8F"/>
<path d="M11.0002 5.35132C9.88304 5.35132 8.79093 5.68261 7.86201 6.30329C6.93309 6.92398 6.20908 7.80618 5.78155 8.83834C5.35401 9.87051 5.24215 11.0063 5.4601 12.102C5.67806 13.1977 6.21604 14.2042 7.00603 14.9942C7.79601 15.7842 8.80251 16.3222 9.89824 16.5401C10.994 16.7581 12.1297 16.6462 13.1619 16.2187C14.1941 15.7912 15.0763 15.0672 15.697 14.1382C16.3176 13.2093 16.6489 12.1172 16.6489 11C16.6489 9.50188 16.0538 8.06511 14.9945 7.00578C13.9351 5.94645 12.4984 5.35132 11.0002 5.35132ZM11.0002 14.6667C10.275 14.6667 9.56614 14.4516 8.96316 14.0487C8.36018 13.6458 7.89021 13.0732 7.61269 12.4032C7.33517 11.7332 7.26256 10.9959 7.40403 10.2847C7.54551 9.57341 7.89473 8.92007 8.40752 8.40728C8.92032 7.89448 9.57365 7.54527 10.2849 7.40379C10.9962 7.26231 11.7334 7.33492 12.4034 7.61244C13.0734 7.88996 13.6461 8.35993 14.049 8.96291C14.4519 9.56589 14.6669 10.2748 14.6669 11C14.6669 11.9725 14.2806 12.9051 13.593 13.5927C12.9053 14.2804 11.9727 14.6667 11.0002 14.6667Z" fill="#8F8F8F"/>
<path d="M11 1.98202C13.9371 1.98202 14.2851 1.9932 15.4449 2.04618C16.1425 2.05449 16.8334 2.18261 17.4875 2.42495C17.9619 2.608 18.3927 2.8883 18.7523 3.24784C19.1118 3.60738 19.3921 4.03819 19.5751 4.51257C19.8175 5.16671 19.9456 5.85763 19.9539 6.55518C20.0068 7.71503 20.0181 8.063 20.0181 11.0001C20.0181 13.9372 20.0069 14.2852 19.9539 15.445C19.9456 16.1425 19.8175 16.8335 19.5751 17.4876C19.3921 17.962 19.1118 18.3928 18.7523 18.7523C18.3927 19.1119 17.9619 19.3922 17.4875 19.5752C16.8334 19.8176 16.1425 19.9457 15.4449 19.954C14.2852 20.0069 13.9374 20.0182 11 20.0182C8.06263 20.0182 7.71485 20.007 6.55508 19.954C5.85754 19.9457 5.16662 19.8176 4.51248 19.5752C4.0381 19.3922 3.60729 19.1119 3.24775 18.7523C2.88821 18.3928 2.6079 17.962 2.42486 17.4876C2.18252 16.8335 2.0544 16.1425 2.04609 15.445C1.9932 14.2852 1.98192 13.9372 1.98192 11.0001C1.98192 8.063 1.99311 7.71503 2.04609 6.55518C2.0544 5.85763 2.18252 5.16671 2.42486 4.51257C2.60789 4.03817 2.88819 3.60735 3.24773 3.24779C3.60727 2.88823 4.03809 2.60791 4.51248 2.42486C5.16662 2.18252 5.85754 2.0544 6.55508 2.04609C7.71494 1.9932 8.06291 1.98192 11 1.98192V1.98202ZM11 0C8.01258 0 7.63794 0.0126498 6.4647 0.0661832C5.5523 0.084501 4.6496 0.25739 3.795 0.5775C3.06417 0.860121 2.40045 1.29232 1.84638 1.84638C1.29232 2.40045 0.860121 3.06417 0.5775 3.795C0.25734 4.64975 0.0844493 5.5526 0.0661832 6.46516C0.0126498 7.63794 0 8.01258 0 11C0 13.9874 0.0126498 14.3621 0.0661832 15.5353C0.0844599 16.4479 0.25735 17.3507 0.5775 18.2055C0.860121 18.9363 1.29232 19.6 1.84638 20.1541C2.40045 20.7081 3.06417 21.1403 3.795 21.423C4.64975 21.7431 5.5526 21.916 6.46516 21.9343C7.63794 21.9874 8.01258 22 11 22C13.9874 22 14.3621 21.9874 15.5353 21.9338C16.4479 21.9155 17.3507 21.7427 18.2055 21.4225C18.9363 21.1399 19.6 20.7077 20.1541 20.1536C20.7081 19.5995 21.1403 18.9358 21.423 18.205C21.7431 17.3503 21.916 16.4474 21.9343 15.5348C21.9874 14.3621 22 13.9874 22 11C22 8.01258 21.9874 7.63794 21.9338 6.4647C21.9155 5.5523 21.7426 4.6496 21.4225 3.795C21.1398 3.06426 20.7076 2.40063 20.1535 1.84664C19.5995 1.29265 18.9358 0.860528 18.205 0.577958C17.3503 0.257808 16.4474 0.0849185 15.5348 0.0666417C14.3621 0.01265 13.9874 0 11 0Z" fill="#8F8F8F"/>
</svg>
