<svg width="20" height="22" viewBox="0 0 20 22" fill="none" xmlns="http://www.w3.org/2000/svg">
<path fill-rule="evenodd" clip-rule="evenodd" d="M5.40885 17.1064C5.85705 17.3363 6.35622 17.4563 6.86294 17.4561C8.55082 17.4561 9.9287 16.1511 9.9909 14.5246L9.99712 0H13.7254C13.7257 0.308497 13.7553 0.616312 13.8135 0.919563H11.0837L14.8124 0.920068C14.8119 2.13566 15.2652 3.31016 16.0882 4.22546L16.0893 4.22663C16.9288 4.7597 17.9101 5.04313 18.9129 5.04222V5.84934C19.2639 5.9224 19.6268 5.96131 20 5.96131V9.58613C18.1386 9.58824 16.3237 9.02096 14.8125 7.96469V15.3298C14.8125 19.0075 11.7338 22 7.94951 22C7.00713 22.0002 6.07485 21.8113 5.21108 21.4449C4.34793 21.0789 3.57187 20.5436 2.93134 19.8726L2.92994 19.8716C1.16015 18.6639 0 16.6665 0 14.4102C0 10.7319 3.07871 7.73896 6.86294 7.73896C7.17241 7.74038 7.48136 7.76229 7.78777 7.80445V8.66255C7.80932 8.66213 7.83073 8.6614 7.85223 8.66071C7.88448 8.65961 7.91683 8.65851 7.94951 8.65851C8.25893 8.65993 8.56793 8.68184 8.87429 8.72401V12.424C8.58194 12.3348 8.27247 12.2828 7.94951 12.2828C7.11846 12.2838 6.32175 12.6051 5.73416 13.1764C5.14658 13.7476 4.81612 14.522 4.81532 15.3297C4.81537 15.9677 5.0236 16.5898 5.40885 17.1064ZM1.53924 17.7099C1.85775 18.5165 2.33309 19.2482 2.92842 19.8701C2.32097 19.2382 1.8519 18.5034 1.53924 17.7099Z" fill="#8F8F8F"/>
</svg>
