<svg width="26" height="18" viewBox="0 0 26 18" fill="none" xmlns="http://www.w3.org/2000/svg">
<path d="M25.4515 2.8102C25.3035 2.26657 25.0138 1.7709 24.6113 1.37281C24.2088 0.974716 23.7077 0.688166 23.158 0.541837C21.1338 1.64217e-07 13 0 13 0C13 0 4.86615 1.64217e-07 2.84197 0.541837C2.29233 0.688166 1.79118 0.974716 1.38868 1.37281C0.986192 1.7709 0.696474 2.26657 0.548526 2.8102C0.170568 4.85198 -0.0128456 6.92433 0.000698653 9C-0.0128456 11.0757 0.170568 13.148 0.548526 15.1898C0.696474 15.7334 0.986192 16.2291 1.38868 16.6272C1.79118 17.0253 2.29233 17.3118 2.84197 17.4582C4.86615 18 13 18 13 18C13 18 21.1338 18 23.158 17.4582C23.7077 17.3118 24.2088 17.0253 24.6113 16.6272C25.0138 16.2291 25.3035 15.7334 25.4515 15.1898C25.8294 13.148 26.0128 11.0757 25.9993 9C26.0128 6.92433 25.8294 4.85198 25.4515 2.8102ZM10.4001 12.8571V5.14286L17.1505 9L10.4001 12.8571Z" fill="#8F8F8F"/>
</svg>
